<svg width="134" height="82" viewBox="0 0 134 82" fill="none" xmlns="http://www.w3.org/2000/svg">
<path d="M116.86 2.33745L116.829 2.34918L116.797 2.35951C114.207 3.20145 112.389 4.0702 111.065 5.08856C109.774 6.08186 108.898 7.25966 108.258 8.82783C107.311 11.1989 107.379 13.1697 108.142 14.6955C108.911 16.2339 110.521 17.588 113.189 18.4369L113.201 18.4407L113.212 18.4447C119.214 20.465 124.442 17.6502 126.766 13.7924C127.926 11.8657 128.303 9.77808 127.806 7.96219C127.321 6.18966 125.939 4.43771 123.09 3.25091L123.085 3.24874C121.839 2.72389 120.667 2.26886 119.803 1.96459C119.366 1.81087 119.032 1.70441 118.815 1.64596C118.812 1.64534 118.81 1.64474 118.808 1.64414C118.807 1.64433 118.806 1.64453 118.806 1.64473C118.692 1.67708 118.531 1.72897 118.324 1.80043C117.913 1.94283 117.4 2.13527 116.86 2.33745Z" stroke="white" stroke-width="3"/>
<path d="M4.65125 31.361L4.64854 31.365C-1.16011 40.078 2.57209 53.602 13.4359 60.8872L13.4359 60.8872L13.4422 60.8914C21.0869 66.0742 33.5439 70.8229 50.7108 75.3478C73.4686 81.1685 90.0845 78.6303 99.5117 68.7012C105.836 61.9964 108.702 53.7456 108.834 40.6589C108.834 35.4443 108.73 32.3819 108.292 30.0231C107.869 27.7427 107.127 26.0802 105.711 23.6996L105.705 23.6885L105.698 23.6772C100.733 14.9884 91.5595 11.1746 80.3534 13.3388C75.9591 14.1932 71.8332 16.6156 60.7185 25.1859C57.2406 27.8828 53.6731 29.3229 49.4729 29.4325C45.3345 29.5404 40.7081 28.3523 35.0985 26.0544C21.4536 20.4665 10.3645 22.7304 4.65125 31.361Z" stroke="white" stroke-width="3"/>
<path d="M119.433 28.3539L119.405 28.3836L119.376 28.4117C118.39 29.3649 117.711 30.0977 117.272 30.708C116.835 31.3147 116.715 31.6904 116.696 31.9362C116.678 32.1546 116.724 32.4519 117.025 32.9431C117.342 33.4605 117.881 34.0927 118.728 34.9393C120.767 36.9785 124.145 37.4887 127.153 36.6249C130.191 35.7525 132.167 33.7191 132.167 31.3333C132.167 30.074 131.379 28.6297 129.894 27.4357C128.43 26.2586 126.488 25.4999 124.6 25.4999C124.159 25.4999 123.283 25.7372 122.211 26.2965C121.18 26.8345 120.16 27.5706 119.433 28.3539Z" stroke="white" stroke-width="3"/>
<path d="M118.834 44.6666L118.816 44.6802L118.797 44.6933C117.4 45.6769 116.647 47.2358 116.583 48.7151C116.518 50.19 117.126 51.4099 118.245 52.0126C119.678 52.7843 121.865 53.1967 123.985 53.1503C125.028 53.1274 125.994 52.9942 126.782 52.7711C127.596 52.541 128.095 52.251 128.34 52.0059C129.632 50.714 129.732 48.5777 128.583 46.467C127.446 44.3774 125.325 42.8333 123.001 42.8333C122.7 42.8333 122.054 42.9751 121.196 43.3338C120.378 43.6758 119.522 44.1503 118.834 44.6666Z" stroke="white" stroke-width="3"/>
<path d="M120.332 67.9318L120.343 67.9275L120.354 67.9234C122.004 67.3233 122.768 66.103 122.836 64.821C122.905 63.4992 122.236 61.8997 120.534 60.6913C118.861 59.514 117.539 59.0147 116.386 58.9651C115.264 58.9168 114.089 59.286 112.678 60.2832C111.532 61.1266 111.157 62.06 111.154 62.9251C111.152 63.8553 111.584 64.9219 112.455 65.9042C114.216 67.8888 117.347 69.0714 120.332 67.9318Z" stroke="white" stroke-width="3"/>
<path d="M113.36 74.4786L113.353 74.4708L113.346 74.463C112.061 73.0167 110.077 72.2247 108.2 72.1827C106.297 72.1401 104.905 72.8498 104.331 73.8924C103.625 75.318 103.628 76.5065 103.994 77.3548C104.357 78.1936 105.19 78.9675 106.698 79.3446C110.146 80.2066 112.661 79.5002 113.792 78.4727C114.329 77.9853 114.558 77.44 114.547 76.8732C114.535 76.2816 114.255 75.457 113.36 74.4786Z" stroke="white" stroke-width="3"/>
</svg>
